<svg width="24" height="24" viewBox="0 0 24 24" fill="none" xmlns="http://www.w3.org/2000/svg">
<path d="M13.1053 9.45324C11.7448 8.43064 8.83783 7.91634 7.92395 6.46279C6.38051 4.00793 10.3184 4.80508 11.2747 5.13652C14.9016 6.39354 18.2852 8.71113 21.7981 10.3011C23.6457 11.1372 24.4206 12.8995 22.1198 13.8978C20.0373 14.8013 17.5885 15.188 15.4212 15.838C14.4532 16.1283 11.4919 18.0275 11.0706 16.391C10.5092 14.2102 14.1404 14.1654 14.3932 12.7732C11.809 12.3372 8.7375 13.0753 6.11352 13.0834C5.20723 13.0862 -0.668592 13.7382 0.330662 11.6649C1.00278 10.2703 5.65032 10.5441 6.8872 10.4679C9.49914 10.3069 12.1072 10.4714 14.7192 10.6211C14.1852 10.2198 13.6593 9.81768 13.1053 9.45324C13.3185 9.5935 11.9112 8.55568 13.1053 9.45324Z" fill="#222221"/>
</svg>
