<svg
    class="draw-line"
    width="400"
    height="195"
    viewBox="0 0 400 195"
    fill="none"
    xmlns="http://www.w3.org/2000/svg"
    aria-hidden="true"
    focusable="false"
>
    <path
    d="M335.98 3.00091C221.639 45.9082 139.013 76.3307 100.13 90.1998C78.5128 97.9103 50.1769 116.404 16.1316 144.866C-9.68692 166.451 9.70927 180.365 14.4535 185.316C16.8434 187.809 19.1976 190.266 27.5724 191.13C72.9604 195.813 145.659 172.462 221.818 155.013C256.551 147.055 283.41 138.424 312.347 128.029C346.925 115.606 383.679 89.5676 394.389 73.9696C398.757 67.6084 397.179 62.0865 390.404 57.3795C374.57 46.3782 331.767 53.2971 293.285 53.3148C237.889 53.3403 212.962 69.3538 188.804 76.3968C176.906 81.0309 164.974 86.1668 154.254 92.0428C149.411 95.3891 145.781 99.4753 129.732 105.16"
    stroke="black"
    stroke-width="6"
    stroke-linecap="round"
    pathLength="1"
    />
</svg>