<svg
  width="24"
  height="24"
  viewBox="0 0 24 24"
  xmlns="http://www.w3.org/2000/svg"
>
  <path
    d="M7.675 15.9998H16.325L18.5 6.9998L13 1.9248V7.2998C13.2333 7.46647 13.4167 7.6748 13.55 7.9248C13.6833 8.1748 13.75 8.4498 13.75 8.7498C13.75 9.23314 13.5792 9.64564 13.2375 9.9873C12.8958 10.329 12.4833 10.4998 12 10.4998C11.5167 10.4998 11.1042 10.329 10.7625 9.9873C10.4208 9.64564 10.25 9.23314 10.25 8.7498C10.25 8.4498 10.3167 8.1748 10.45 7.9248C10.5833 7.6748 10.7667 7.46647 11 7.2998V1.9248L5.5 6.9998L7.675 15.9998ZM4 20.9998L4.55 19.3748C4.68333 18.9581 4.925 18.6248 5.275 18.3748C5.625 18.1248 6.01667 17.9998 6.45 17.9998H17.55C17.9833 17.9998 18.375 18.1248 18.725 18.3748C19.075 18.6248 19.3167 18.9581 19.45 19.3748L20 20.9998H4Z"
    fill="currentColor"
  />
</svg>
