<svg
  width="24"
  height="24"
  viewBox="0 0 24 24"
  xmlns="http://www.w3.org/2000/svg"
>
  <path
    d="M19.62 11.6669C19.62 16.2769 16.81 17.2969 14.14 17.5869C14.56 17.9469 14.95 18.6869 14.95 19.8069C14.95 21.4169 14.94 22.7069 14.94 23.0969C14.94 23.4069 15.15 23.7869 15.76 23.6669C20.57 22.0969 24 17.5969 24 12.2969C24 5.66687 18.63 0.296875 12 0.296875C5.37 0.296875 0 5.66687 0 12.2969C0 17.5969 3.44 22.0969 8.21 23.6869C8.81 23.7969 9.03 23.4269 9.03 23.1069C9.03 22.8169 9.02 22.0669 9.01 21.0669C5.67 21.7869 4.97 19.4569 4.97 19.4569C4.42 18.0669 3.63 17.6969 3.63 17.6969C2.55 16.9569 3.72 16.9669 3.72 16.9669C4.92 17.0569 5.56 18.2069 5.56 18.2069C6.63 20.0469 8.36 19.5169 9.05 19.2069C9.16 18.4269 9.47 17.8969 9.81 17.5969C7.15 17.2969 4.34 16.2669 4.34 11.6669C4.34 10.3569 4.81 9.28687 5.58 8.44687C5.44 8.14687 5.04 6.92687 5.68 5.27688C5.68 5.27688 6.69 4.95688 8.98 6.50688C9.94 6.23688 10.96 6.10688 11.98 6.09688C13 6.10688 14.02 6.23688 14.98 6.50688C17.26 4.95688 18.27 5.27688 18.27 5.27688C18.91 6.92687 18.51 8.14687 18.39 8.44687C19.15 9.28687 19.62 10.3569 19.62 11.6669Z"
    fill="currentColor"
  />
</svg>
