<svg xmlns="http://www.w3.org/2000/svg" xmlns:xlink="http://www.w3.org/1999/xlink" viewBox="0 0 671 195" width="671" height="195" preserveAspectRatio="xMidYMid meet" style="width: 100%; height: 100%; transform: translate3d(0px, 0px, 0px); content-visibility: visible;"><g clip-path="url(#__lottie_element_2)"><g clip-path="url(#__lottie_element_4)" transform="matrix(1,0,0,1,0,7)" opacity="1" style="display: block;"><g clip-path="url(#__lottie_element_80)" style="display: block;" transform="matrix(1,0,0,1,0,0)" opacity="1"><g style="display: block;" transform="matrix(0.5,0,0,0.5,336.5975036621094,89.5739974975586)" opacity="1"><g opacity="1" transform="matrix(1,0,0,1,0,0)"><path fill="rgb(23,23,23)" fill-opacity="1" d=" M-450.3900146484375,-1.055999994277954 C-450.3900146484375,-1.246999979019165 -450.3900146484375,-1.4290000200271606 -450.3900146484375,-1.6200000047683716 C-450.4179992675781,-3.2170000076293945 -450.46600341796875,-4.784999847412109 -450.552001953125,-6.3520002365112305 C-453.572998046875,-58.10300064086914 -496.3370056152344,-99.23999786376953 -548.8989868164062,-99.9000015258789 C-548.8989868164062,-99.9000015258789 -549.2630004882812,-99.9000015258789 -549.2630004882812,-99.9000015258789 C-549.5780029296875,-99.9000015258789 -549.875,-99.9000015258789 -550.1900024414062,-99.9000015258789 C-577.093017578125,-99.9000015258789 -601.510009765625,-89.28800201416016 -619.4550170898438,-72.0510025024414 C-638.2890014648438,-53.981998443603516 -650,-28.599000930786133 -650,-0.4819999933242798 C-650,-0.4819999933242798 -650,161.66099548339844 -650,161.66099548339844 C-650,168.28599548339844 -646.6920166015625,171.60400390625 -640.0570068359375,171.60400390625 C-640.0570068359375,171.60400390625 -627.8200073242188,171.60400390625 -627.8200073242188,171.60400390625 C-621.4530029296875,171.60400390625 -618.260009765625,168.28599548339844 -618.260009765625,161.66099548339844 C-618.260009765625,161.66099548339844 -618.260009765625,71.03900146484375 -618.260009765625,71.03900146484375 C-612.3900146484375,77.15699768066406 -605.906982421875,82.28199768066406 -598.822998046875,86.37300109863281 C-598.7659912109375,86.4020004272461 -598.708984375,86.43099975585938 -598.6610107421875,86.45899963378906 C-590.9840087890625,90.71399688720703 -582.6849975585938,93.99299621582031 -573.927978515625,96.11499786376953 C-573.7750244140625,96.15399932861328 -573.6220092773438,96.19200134277344 -573.47900390625,96.22000122070312 C-565.7919921875,97.97000122070312 -557.5989990234375,98.87799835205078 -548.8989868164062,98.94499969482422 C-548.8989868164062,98.94499969482422 -548.7940063476562,98.94499969482422 -548.7940063476562,98.94499969482422 C-494.739990234375,98.1989974975586 -451.0780029296875,54.6619987487793 -450.3900146484375,0.8080000281333923 C-450.3900146484375,0.5210000276565552 -450.3900146484375,0.24400000274181366 -450.3900146484375,-0.023000000044703484 C-450.3900146484375,-0.023000000044703484 -450.3900146484375,-0.4729999899864197 -450.3900146484375,-0.4729999899864197 C-450.3900146484375,-0.6639999747276306 -450.3900146484375,-0.8550000190734863 -450.3900146484375,-1.0460000038146973 C-450.3900146484375,-1.0460000038146973 -450.3900146484375,-1.055999994277954 -450.3900146484375,-1.055999994277954z M-491.87200927734375,36.229000091552734 C-497.6080017089844,46.9370002746582 -505.58099365234375,55.292999267578125 -515.7730102539062,61.277000427246094 C-525.9739990234375,67.27200317382812 -537.5700073242188,70.27400207519531 -550.572021484375,70.27400207519531 C-563.573974609375,70.27400207519531 -575.2379760742188,67.20500183105469 -585.56298828125,61.09600067138672 C-595.8880004882812,54.96799850463867 -603.9190063476562,46.55500030517578 -609.655029296875,35.84700012207031 C-615.3909912109375,25.138999938964844 -618.260009765625,13.15999984741211 -618.260009765625,-0.10000000149011612 C-618.260009765625,-13.359999656677246 -615.458984375,-25.722000122070312 -609.8469848632812,-36.42900085449219 C-604.2449951171875,-47.137001037597656 -596.27099609375,-55.606998443603516 -585.9459838867188,-61.86000061035156 C-575.6209716796875,-68.10299682617188 -563.573974609375,-71.22899627685547 -549.8079833984375,-71.22899627685547 C-529.6740112304688,-70.97100067138672 -513.5449829101562,-64.21199798583984 -501.4320068359375,-50.96099853515625 C-489.3290100097656,-37.70100021362305 -483.26800537109375,-20.75 -483.26800537109375,-0.10000000149011612 C-483.26800537109375,13.418000221252441 -486.135986328125,25.52199935913086 -491.87200927734375,36.229000091552734z"></path></g></g><g style="display: block;" transform="matrix(0.5,0,0,0.5,336.0350036621094,92.12825775146484)" opacity="1"><g opacity="1" transform="matrix(1,0,0,1,0,0)"><path fill="rgb(23,23,23)" fill-opacity="1" d=" M-235.83099365234375,-55.30400085449219 C-235.83099365234375,-55.30400085449219 -235.85000610351562,-55.30400085449219 -235.85000610351562,-55.30400085449219 C-244.0050048828125,-70.46700286865234 -255.4770050048828,-82.3219985961914 -270.2569885253906,-90.86900329589844 C-285.0469970703125,-99.40599822998047 -301.87298583984375,-103.68000030517578 -320.7460021972656,-103.68000030517578 C-339.6180114746094,-103.68000030517578 -356.25299072265625,-99.48300170898438 -371.4150085449219,-91.05999755859375 C-378.0119934082031,-87.39800262451172 -384.0060119628906,-83.11499786376953 -389.39801025390625,-78.21099853515625 C-390.55499267578125,-77.1500015258789 -391.6929931640625,-76.05999755859375 -392.7919921875,-74.94100189208984 C-393.1650085449219,-74.56800079345703 -393.52801513671875,-74.18599700927734 -393.8919982910156,-73.81300354003906 C-393.9200134277344,-73.78399658203125 -393.9590148925781,-73.75599670410156 -393.98699951171875,-73.71800231933594 C-399.0539855957031,-68.4020004272461 -403.5190124511719,-62.45500183105469 -407.36199951171875,-55.87799835205078 C-416.1669921875,-40.83000183105469 -420.5559997558594,-23.8799991607666 -420.5559997558594,-5.017000198364258 C-420.5559997558594,13.845999717712402 -415.8999938964844,32.02000045776367 -406.59698486328125,47.18299865722656 C-403.0889892578125,52.909000396728516 -399.072998046875,58.14799880981445 -394.5610046386719,62.91899871826172 C-393.75799560546875,63.77899932861328 -392.9169921875,64.62999725341797 -392.07501220703125,65.44300079345703 C-391.406005859375,66.11199951171875 -390.72698974609375,66.76200103759766 -390.0199890136719,67.40299987792969 C-389.2170104980469,68.13899993896484 -388.40399169921875,68.86499786376953 -387.5719909667969,69.572998046875 C-387.1610107421875,69.91699981689453 -386.7409973144531,70.27999877929688 -386.32000732421875,70.625 C-380.85101318359375,75.15599822998047 -374.7900085449219,79.13300323486328 -368.1650085449219,82.5459976196289 C-351.8450012207031,90.95899963378906 -333.3559875488281,95.16600036621094 -312.7049865722656,95.16600036621094 C-297.2850036621094,95.16600036621094 -282.64801025390625,92.5459976196289 -268.8039855957031,87.31700134277344 C-257.2650146484375,82.95700073242188 -246.27099609375,76.77200317382812 -235.83999633789062,68.77899932861328 C-233.8040008544922,67.50800323486328 -232.781005859375,65.84400177001953 -232.781005859375,63.80799865722656 C-232.781005859375,62.02000045776367 -233.42100524902344,60.5 -234.6929931640625,59.20899963378906 C-234.6929931640625,59.20899963378906 -243.0959930419922,48.50199890136719 -243.0959930419922,48.50199890136719 C-245.39100646972656,45.70100021362305 -247.81900024414062,44.29499816894531 -250.36199951171875,44.29499816894531 C-252.14999389648438,44.29499816894531 -254.18600463867188,45.060001373291016 -256.4809875488281,46.59000015258789 C-276.1180114746094,59.849998474121094 -295.239013671875,66.4749984741211 -313.8429870605469,66.4749984741211 C-326.39599609375,66.4749984741211 -337.82000732421875,64.00900268554688 -348.10699462890625,59.055999755859375 C-349.5220031738281,58.36800003051758 -350.9079895019531,57.6510009765625 -352.2760009765625,56.867000579833984 C-355.5169982910156,55.05099868774414 -358.63299560546875,52.957000732421875 -361.635009765625,50.60499954223633 C-375.15301513671875,40.02199935913086 -383.5669860839844,26.06399917602539 -386.8739929199219,8.730999946594238 C-386.8739929199219,8.730999946594238 -233.1439971923828,8.730999946594238 -233.1439971923828,8.730999946594238 C-226.77699279785156,8.730999946594238 -223.58399963378906,5.546999931335449 -223.58399963378906,-0.8389999866485596 C-223.58399963378906,-0.8389999866485596 -223.58399963378906,-3.8980000019073486 -223.58399963378906,-3.8980000019073486 C-223.58399963378906,-23.018999099731445 -227.66600036621094,-40.1609992980957 -235.8209991455078,-55.33300018310547 C-235.8209991455078,-55.33300018310547 -235.83099365234375,-55.30400085449219 -235.83099365234375,-55.30400085449219z M-387.2659912109375,-18.018999099731445 C-384.4649963378906,-34.845001220703125 -377.00799560546875,-48.54499816894531 -364.9049987792969,-59.12799835205078 C-360.7359924316406,-62.770999908447266 -356.281005859375,-65.78199768066406 -351.53900146484375,-68.16300201416016 C-351.1090087890625,-68.37300109863281 -350.66900634765625,-68.58399963378906 -350.239013671875,-68.80400085449219 C-341.5010070800781,-72.93399810791016 -331.7969970703125,-74.9990005493164 -321.1180114746094,-74.9990005493164 C-304.54998779296875,-74.9990005493164 -290.3340148925781,-69.76899719238281 -278.47900390625,-59.31999969482422 C-266.6239929199219,-48.85100173950195 -259.3009948730469,-35.09400177001953 -256.4909973144531,-18.018999099731445 C-256.4909973144531,-18.018999099731445 -387.2659912109375,-18.018999099731445 -387.2659912109375,-18.018999099731445z"></path></g></g><g style="display: block;" transform="matrix(0.5,0,0,0.5,264.5,89.25)" opacity="1"><g opacity="1" transform="matrix(1,0,0,1,0,0)"><path fill="rgb(23,23,23)" fill-opacity="1" d=" M-43.97700119018555,-11.472000122070312 C-43.97700119018555,-28.29800033569336 -40.66999816894531,-43.40399932861328 -34.03499984741211,-56.78799819946289 C-27.40999984741211,-70.1729965209961 -17.974000930786133,-80.62200164794922 -5.736000061035156,-88.14600372314453 C6.500999927520752,-95.66000366210938 20.525999069213867,-99.4280014038086 36.32899856567383,-99.4280014038086 C36.32899856567383,-99.4280014038086 37.47700119018555,-99.4280014038086 37.47700119018555,-99.4280014038086 C41.80799865722656,-99.4280014038086 43.97700119018555,-97.13300323486328 43.97700119018555,-92.54399871826172 C43.97700119018555,-92.54399871826172 43.97700119018555,-75.33599853515625 43.97700119018555,-75.33599853515625 C43.97700119018555,-72.2770004272461 43.21200180053711,-70.74600219726562 41.68299865722656,-70.74600219726562 C25.621000289916992,-70.74600219726562 12.677000045776367,-64.75199890136719 2.868000030517578,-52.77299880981445 C-6.951000213623047,-40.784000396728516 -11.854999542236328,-25.746000289916992 -11.854999542236328,-7.6479997634887695 C-11.854999542236328,-7.6479997634887695 -11.472999572753906,89.86699676513672 -11.472999572753906,89.86699676513672 C-11.472999572753906,96.24400329589844 -14.789999961853027,99.4280014038086 -21.415000915527344,99.4280014038086 C-21.415000915527344,99.4280014038086 -34.03499984741211,99.4280014038086 -34.03499984741211,99.4280014038086 C-40.4119987487793,99.4280014038086 -43.59400177001953,96.24400329589844 -43.59400177001953,89.86699676513672 C-43.59400177001953,89.86699676513672 -43.97700119018555,-11.472000122070312 -43.97700119018555,-11.472000122070312z"></path></g></g><g style="display: block;" transform="matrix(0.5,0,0,0.5,336.7289733886719,89.57201385498047)" opacity="1"><g opacity="1" transform="matrix(1,0,0,1,0,0)"><path fill="rgb(23,23,23)" fill-opacity="1" d=" M117.34700012207031,-1.055999994277954 C117.34700012207031,-1.246999979019165 117.34700012207031,-1.4290000200271606 117.34700012207031,-1.6200000047683716 C117.31800079345703,-3.2170000076293945 117.27100372314453,-4.784999847412109 117.18399810791016,-6.3520002365112305 C114.16300201416016,-58.10300064086914 71.4000015258789,-99.23999786376953 18.836999893188477,-99.9000015258789 C18.836999893188477,-99.9000015258789 18.474000930786133,-99.9000015258789 18.474000930786133,-99.9000015258789 C18.158000946044922,-99.9000015258789 17.86199951171875,-99.9000015258789 17.547000885009766,-99.9000015258789 C-9.355999946594238,-99.9000015258789 -33.77299880981445,-89.28800201416016 -51.71799850463867,-72.0510025024414 C-70.552001953125,-53.97200012207031 -82.26300048828125,-28.579999923706055 -82.26300048828125,-0.4729999899864197 C-82.26300048828125,-0.4729999899864197 -82.26300048828125,161.67100524902344 -82.26300048828125,161.67100524902344 C-82.26300048828125,168.29600524902344 -78.95600128173828,171.61300659179688 -72.32099914550781,171.61300659179688 C-72.32099914550781,171.61300659179688 -60.08300018310547,171.61300659179688 -60.08300018310547,171.61300659179688 C-53.715999603271484,171.61300659179688 -50.52299880981445,168.29600524902344 -50.52299880981445,161.67100524902344 C-50.52299880981445,161.67100524902344 -50.52299880981445,71.0479965209961 -50.52299880981445,71.0479965209961 C-44.65299987792969,77.16699981689453 -38.17100143432617,82.29100036621094 -31.086999893188477,86.38300323486328 C-31.030000686645508,86.41200256347656 -30.972000122070312,86.44000244140625 -30.923999786376953,86.46900177001953 C-23.246999740600586,90.7229995727539 -14.949000358581543,94.00299835205078 -6.191999912261963,96.125 C-6.047999858856201,96.16300201416016 -5.886000156402588,96.20099639892578 -5.742000102996826,96.2300033569336 C1.944000005722046,97.9800033569336 10.13700008392334,98.88800048828125 18.836999893188477,98.95500183105469 C18.836999893188477,98.95500183105469 18.941999435424805,98.95500183105469 18.941999435424805,98.95500183105469 C72.99700164794922,98.20899963378906 116.65899658203125,54.67100143432617 117.34700012207031,0.8180000185966492 C117.34700012207031,0.531000018119812 117.34700012207031,0.2540000081062317 117.34700012207031,-0.014000000432133675 C117.34700012207031,-0.014000000432133675 117.34700012207031,-0.46299999952316284 117.34700012207031,-0.46299999952316284 C117.34700012207031,-0.6539999842643738 117.34700012207031,-0.8460000157356262 117.34700012207031,-1.0369999408721924 C117.34700012207031,-1.0369999408721924 117.34700012207031,-1.055999994277954 117.34700012207031,-1.055999994277954z M75.86499786376953,36.229000091552734 C70.12799835205078,46.9370002746582 62.154998779296875,55.292999267578125 51.9640007019043,61.277000427246094 C41.76300048828125,67.27200317382812 30.166000366210938,70.27400207519531 17.163999557495117,70.27400207519531 C4.1620001792907715,70.27400207519531 -7.501999855041504,67.20500183105469 -17.82699966430664,61.09600067138672 C-28.152000427246094,54.96799850463867 -36.18299865722656,46.55500030517578 -41.91899871826172,35.84700012207031 C-47.654998779296875,25.138999938964844 -50.52299880981445,13.15999984741211 -50.52299880981445,-0.10000000149011612 C-50.52299880981445,-13.359999656677246 -47.72200012207031,-25.722000122070312 -42.11000061035156,-36.42900085449219 C-36.507999420166016,-47.137001037597656 -28.534000396728516,-55.606998443603516 -18.208999633789062,-61.86000061035156 C-7.883999824523926,-68.10299682617188 4.1620001792907715,-71.22899627685547 17.929000854492188,-71.22899627685547 C38.0629997253418,-70.97100067138672 54.20100021362305,-64.21199798583984 66.30400085449219,-50.96099853515625 C78.40799713134766,-37.70100021362305 84.46900177001953,-20.75 84.46900177001953,-0.10000000149011612 C84.46900177001953,13.418000221252441 81.60099792480469,25.52199935913086 75.86499786376953,36.229000091552734z"></path></g></g><g style="display: block;" transform="matrix(0.5,-0.000015670255379518494,0.000015670255379518494,0.5,419.2534484863281,70.99362182617188)" opacity="1"><g opacity="1" transform="matrix(1,0,0,1,0,0)"><path fill="rgb(23,23,23)" fill-opacity="1" d=" M-16.25200080871582,-126.1969985961914 C-16.25200080871582,-132.56399536132812 -12.944000244140625,-135.7570037841797 -6.309000015258789,-135.7570037841797 C-6.309000015258789,-135.7570037841797 6.692999839782715,-135.7570037841797 6.692999839782715,-135.7570037841797 C13.317999839782715,-135.7570037841797 16.635000228881836,-132.56399536132812 16.635000228881836,-126.1969985961914 C16.635000228881836,-126.1969985961914 16.253000259399414,126.1969985961914 16.253000259399414,126.1969985961914 C16.253000259399414,132.572998046875 12.9350004196167,135.7570037841797 6.309999942779541,135.7570037841797 C6.309999942779541,135.7570037841797 -6.691999912261963,135.7570037841797 -6.691999912261963,135.7570037841797 C-13.32699966430664,135.7570037841797 -16.635000228881836,132.572998046875 -16.635000228881836,126.1969985961914 C-16.635000228881836,126.1969985961914 -16.25200080871582,-126.1969985961914 -16.25200080871582,-126.1969985961914z"></path></g></g><g style="display: block;" transform="matrix(0.5,0,0,0.5,335.9711608886719,90.22498321533203)" opacity="1"><g opacity="1" transform="matrix(1,0,0,1,0,0)"><path fill="rgb(23,23,23)" fill-opacity="1" d=" M401.3299865722656,-51.53900146484375 C401.3299865722656,-51.53900146484375 401.32000732421875,-51.53900146484375 401.32000732421875,-51.53900146484375 C393.1700134277344,-66.70099639892578 381.69000244140625,-78.55599975585938 366.9200134277344,-87.10299682617188 C352.1300048828125,-95.63999938964844 335.3009948730469,-99.91400146484375 316.4289855957031,-99.91400146484375 C297.5570068359375,-99.91400146484375 280.9219970703125,-95.71700286865234 265.7590026855469,-87.29399871826172 C259.1619873046875,-83.63200378417969 253.16799926757812,-79.3489990234375 247.7760009765625,-74.44499969482422 C246.61000061035156,-73.38400268554688 245.4810028076172,-72.29399871826172 244.3719940185547,-71.1760025024414 C244,-70.8030014038086 243.63600158691406,-70.41999816894531 243.2729949951172,-70.0479965209961 C243.24400329589844,-70.01899719238281 243.20599365234375,-69.98999786376953 243.177001953125,-69.9520034790039 C238.11000061035156,-64.63600158691406 233.64599609375,-58.689998626708984 229.802001953125,-52.11199951171875 C220.9969940185547,-37.06399917602539 216.60899353027344,-20.11400032043457 216.60899353027344,-1.2510000467300415 C216.60899353027344,17.611000061035156 221.26499938964844,35.78499984741211 230.56700134277344,50.948001861572266 C234.0760040283203,56.67499923706055 238.09100341796875,61.91400146484375 242.60400390625,66.68399810791016 C243.41600036621094,67.54499816894531 244.2480010986328,68.39600372314453 245.08900451660156,69.20800018310547 C245.75900268554688,69.87799835205078 246.44700622558594,70.52799987792969 247.14500427246094,71.16799926757812 C247.93800354003906,71.90399932861328 248.76100158691406,72.63099670410156 249.58299255371094,73.33799743652344 C249.99400329589844,73.68299865722656 250.4149932861328,74.0459976196289 250.8260040283203,74.38999938964844 C256.29400634765625,78.9219970703125 262.3550109863281,82.89900207519531 268.9809875488281,86.31199645996094 C285.29998779296875,94.7249984741211 303.7900085449219,98.93199920654297 324.44000244140625,98.93199920654297 C339.8609924316406,98.93199920654297 354.510009765625,96.31199645996094 368.3399963378906,91.08200073242188 C379.8800048828125,86.7229995727539 390.8800048828125,80.53700256347656 401.30999755859375,72.54499816894531 C403.3399963378906,71.27300262451172 404.3599853515625,69.61000061035156 404.3599853515625,67.5739974975586 C404.3599853515625,65.78600311279297 403.7200012207031,64.26599884033203 402.45001220703125,62.974998474121094 C402.45001220703125,62.974998474121094 394.04998779296875,52.266998291015625 394.04998779296875,52.266998291015625 C391.75,49.465999603271484 389.3299865722656,48.06100082397461 386.7799987792969,48.06100082397461 C385,48.06100082397461 382.9599914550781,48.82600021362305 380.6600036621094,50.35499954223633 C361.0299987792969,63.61600112915039 341.9070129394531,70.24099731445312 323.3030090332031,70.24099731445312 C310.75,70.24099731445312 299.32501220703125,67.77400207519531 289.02899169921875,62.821998596191406 C287.62298583984375,62.13399887084961 286.2279968261719,61.41699981689453 284.8609924316406,60.632999420166016 C281.6199951171875,58.816001892089844 278.50299072265625,56.722999572753906 275.5010070800781,54.37099838256836 C261.9830017089844,43.7869987487793 253.56900024414062,29.82900047302246 250.26199340820312,12.496000289916992 C250.26199340820312,12.496000289916992 403.989990234375,12.496000289916992 403.989990234375,12.496000289916992 C410.3599853515625,12.496000289916992 413.54998779296875,9.312999725341797 413.54998779296875,2.927000045776367 C413.54998779296875,2.927000045776367 413.54998779296875,-0.13300000131130219 413.54998779296875,-0.13300000131130219 C413.54998779296875,-19.253000259399414 409.4700012207031,-36.39500045776367 401.32000732421875,-51.56700134277344 C401.32000732421875,-51.56700134277344 401.3299865722656,-51.53900146484375 401.3299865722656,-51.53900146484375z M249.9080047607422,-14.253000259399414 C252.70899963378906,-31.079999923706055 260.1659851074219,-44.779998779296875 272.2699890136719,-55.362998962402344 C276.43798828125,-59.005001068115234 280.88299560546875,-62.016998291015625 285.635009765625,-64.39700317382812 C286.06500244140625,-64.60800170898438 286.5050048828125,-64.81800079345703 286.93499755859375,-65.03800201416016 C295.6730041503906,-69.16799926757812 305.37701416015625,-71.23300170898438 316.0559997558594,-71.23300170898438 C332.6239929199219,-71.23300170898438 346.8399963378906,-66.00399780273438 358.70001220703125,-55.55400085449219 C370.54998779296875,-45.084999084472656 377.8699951171875,-31.327999114990234 380.67999267578125,-14.253000259399414 C380.67999267578125,-14.253000259399414 249.9080047607422,-14.253000259399414 249.9080047607422,-14.253000259399414z"></path></g></g><g style="display: block;" transform="matrix(0.5,0,0,0.5,647.703857421875,123.24078369140625)" opacity="1"><g opacity="1" transform="matrix(1,0,0,1,0,0)"><path fill="rgb(23,23,23)" fill-opacity="1" d=" M-7.089000225067139,-32.4630012512207 C-7.089000225067139,-32.4630012512207 -27.709999084472656,-2.2269999980926514 -27.709999084472656,-2.2269999980926514 C-27.709999084472656,-2.2269999980926514 -9.699999809265137,23.85300064086914 -9.699999809265137,23.85300064086914 C-9.699999809265137,23.85300064086914 -5.139999866485596,32.457000732421875 3.549999952316284,32.457000732421875 C3.549999952316284,32.457000732421875 18.979999542236328,32.457000732421875 18.979999542236328,32.457000732421875 C19.219999313354492,32.457000732421875 19.450000762939453,32.448001861572266 19.690000534057617,32.42900085449219 C25.450000762939453,31.959999084472656 28.489999771118164,25.28700065612793 25.399999618530273,20.392000198364258 C25.399999618530273,20.392000198364258 -7.089000225067139,-32.4630012512207 -7.089000225067139,-32.4630012512207z"></path></g></g><g style="display: block;" transform="matrix(0.5,0,0,0.5,647.703857421875,56.30027770996094)" opacity="1"><g opacity="1" transform="matrix(1,0,0,1,0,0)"><path fill="rgb(23,23,23)" fill-opacity="1" d=" M-7.46999979019165,32.08300018310547 C-7.46999979019165,32.08300018310547 25.399999618530273,-20.392000198364258 25.399999618530273,-20.392000198364258 C28.489999771118164,-25.28700065612793 25.459999084472656,-31.961000442504883 19.68000030517578,-32.42900085449219 C19.450000762939453,-32.448001861572266 19.219999313354492,-32.45800018310547 18.979999542236328,-32.45800018310547 C18.979999542236328,-32.45800018310547 3.700000047683716,-32.45800018310547 3.700000047683716,-32.45800018310547 C-5.070000171661377,-32.45800018310547 -9.699999809265137,-23.85300064086914 -9.699999809265137,-23.85300064086914 C-9.699999809265137,-23.85300064086914 -26.1299991607666,2.559999942779541 -26.1299991607666,2.559999942779541 C-26.1299991607666,2.559999942779541 -7.480000019073486,32.08300018310547 -7.480000019073486,32.08300018310547 C-7.480000019073486,32.08300018310547 -7.46999979019165,32.08300018310547 -7.46999979019165,32.08300018310547z"></path></g></g><g style="display: block;" transform="matrix(0.5,0,0,0.5,573.286865234375,89.85327911376953)" opacity="1"><g opacity="1" transform="matrix(1,0,0,1,0,0)"><path fill="rgb(23,23,23)" fill-opacity="1" d=" M-21.555999755859375,99.41799926757812 C-21.555999755859375,99.41799926757812 -36.83599853515625,99.41799926757812 -36.83599853515625,99.41799926757812 C-37.07600021362305,99.41799926757812 -37.29600143432617,99.40899658203125 -37.5359992980957,99.38999938964844 C-43.305999755859375,98.9209976196289 -46.34600067138672,92.24800109863281 -43.25600051879883,87.35299682617188 C-43.25600051879883,87.35299682617188 9.02400016784668,4.589000225067139 9.02400016784668,4.589000225067139 C10.784000396728516,1.777999997138977 10.784000396728516,-1.7970000505447388 9.02400016784668,-4.5980000495910645 C9.02400016784668,-4.5980000495910645 -43.25600051879883,-87.36299896240234 -43.25600051879883,-87.36299896240234 C-46.34600067138672,-92.25800323486328 -43.316001892089844,-98.93000030517578 -37.5359992980957,-99.39900207519531 C-37.305999755859375,-99.41799926757812 -37.07600021362305,-99.4280014038086 -36.83599853515625,-99.4280014038086 C-36.83599853515625,-99.4280014038086 -21.4060001373291,-99.4280014038086 -21.4060001373291,-99.4280014038086 C-12.715999603271484,-99.4280014038086 -8.156000137329102,-90.822998046875 -8.156000137329102,-90.822998046875 C-8.156000137329102,-90.822998046875 40.50400161743164,-13.78600025177002 40.50400161743164,-13.78600025177002 C45.81399917602539,-5.36299991607666 45.81399917602539,5.363999843597412 40.50400161743164,13.78600025177002 C40.50400161743164,13.78600025177002 -8.156000137329102,90.8239974975586 -8.156000137329102,90.8239974975586 C-8.156000137329102,90.8239974975586 -12.795999526977539,99.4280014038086 -21.555999755859375,99.4280014038086 C-21.555999755859375,99.4280014038086 -21.555999755859375,99.41799926757812 -21.555999755859375,99.41799926757812z"></path></g></g><g style="display: block;" transform="matrix(0.5,0,0,0.5,611.100341796875,89.85327911376953)" opacity="1"><g opacity="1" transform="matrix(1,0,0,1,0,0)"><path fill="rgb(23,23,23)" fill-opacity="1" d=" M-21.55299949645996,99.41799926757812 C-21.55299949645996,99.41799926757812 -36.83300018310547,99.41799926757812 -36.83300018310547,99.41799926757812 C-37.073001861572266,99.41799926757812 -37.303001403808594,99.40899658203125 -37.542999267578125,99.38999938964844 C-43.303001403808594,98.9209976196289 -46.34199905395508,92.24800109863281 -43.262001037597656,87.35299682617188 C-43.262001037597656,87.35299682617188 9.017999649047852,4.589000225067139 9.017999649047852,4.589000225067139 C10.788000106811523,1.777999997138977 10.788000106811523,-1.7970000505447388 9.017999649047852,-4.5980000495910645 C9.017999649047852,-4.5980000495910645 -43.262001037597656,-87.36299896240234 -43.262001037597656,-87.36299896240234 C-46.34199905395508,-92.25800323486328 -43.3129997253418,-98.93000030517578 -37.542999267578125,-99.39900207519531 C-37.3129997253418,-99.41799926757812 -37.073001861572266,-99.4280014038086 -36.83300018310547,-99.4280014038086 C-36.83300018310547,-99.4280014038086 -21.402000427246094,-99.4280014038086 -21.402000427246094,-99.4280014038086 C-12.722000122070312,-99.4280014038086 -8.152000427246094,-90.822998046875 -8.152000427246094,-90.822998046875 C-8.152000427246094,-90.822998046875 40.49800109863281,-13.78600025177002 40.49800109863281,-13.78600025177002 C45.81800079345703,-5.36299991607666 45.81800079345703,5.363999843597412 40.49800109863281,13.78600025177002 C40.49800109863281,13.78600025177002 -8.152000427246094,90.8239974975586 -8.152000427246094,90.8239974975586 C-8.152000427246094,90.8239974975586 -12.803000450134277,99.4280014038086 -21.55299949645996,99.4280014038086 C-21.55299949645996,99.4280014038086 -21.55299949645996,99.41799926757812 -21.55299949645996,99.41799926757812z"></path></g></g></g></g></g></svg>