<?xml version="1.0" encoding="UTF-8"?> <svg xmlns="http://www.w3.org/2000/svg" id="Calque_1" data-name="Calque 1" viewBox="0 0 336.98 55.95"><defs><style> .cls-1 { fill: #f6a230; } .cls-2 { fill: #f6a22f; } .cls-3 { fill: #4f4e4e; } </style></defs><path class="cls-1" d="m333.83,36.26c-.79,0-1.37.63-1.37,1.37h0v4.12c0,1.53-1.21,2.8-2.8,2.8h0c-1.53,0-2.8-1.21-2.8-2.8h0v-5.7c0-9.24-7.5-16.74-16.74-16.74-3.48,0-6.92,1.11-9.77,3.12-2.85-2.06-6.23-3.17-9.77-3.12-9.24,0-16.74,7.5-16.74,16.74v11.03c0,3.06,2.48,5.6,5.6,5.6s5.6-2.48,5.6-5.6v-1.9c0-3.06,2.48-5.6,5.6-5.6s5.6,2.48,5.6,5.6v1.9c0,3.06,2.48,5.6,5.6,5.6s5.6-2.48,5.6-5.6v-5.44c0-3.06,2.48-5.6,5.6-5.6s5.6,2.48,5.6,5.6h0v.05c0,4.59,3.75,8.34,8.34,8.34h0c4.59,0,8.34-3.75,8.34-8.34v-4.07c-.11-.79-.69-1.37-1.48-1.37Zm-15.31-4.54c-.79,0-1.43-.63-1.43-1.37h0c0-.79.63-1.37,1.37-1.43h0c.79,0,1.37.63,1.43,1.37h0c.05.79-.58,1.43-1.37,1.43h0Z"></path><g><path class="cls-2" d="m33.04,33.21v19.47h-8.96v-4.25c-1.78,3.11-5.22,4.76-10.06,4.76-7.73,0-12.34-4.44-12.34-10.34s4.11-10.21,14.18-10.21h7.61c0-4.25-2.45-6.72-7.61-6.72-3.5,0-7.12,1.21-9.51,3.17l-3.44-6.91c3.62-2.66,8.96-4.12,14.24-4.12,10.06,0,15.89,4.82,15.89,15.16Zm-9.57,8.69v-3.49h-6.57c-4.48,0-5.89,1.71-5.89,4,0,2.47,2.03,4.12,5.4,4.12,3.19,0,5.95-1.52,7.06-4.63Z"></path><path class="cls-2" d="m62.98,51.03c-1.96,1.46-4.85,2.16-7.79,2.16-7.79,0-12.33-4.12-12.33-12.24v-14.02h-5.09v-7.61h5.09v-8.31h9.57v8.31h8.22v7.61h-8.22v13.89c0,2.92,1.53,4.5,4.11,4.5,1.41,0,2.82-.44,3.87-1.27l2.58,6.98Z"></path><path class="cls-2" d="m88.94,51.03c-1.96,1.46-4.85,2.16-7.79,2.16-7.79,0-12.33-4.12-12.33-12.24v-14.02h-5.09v-7.61h5.09v-8.31h9.57v8.31h8.22v7.61h-8.22v13.89c0,2.92,1.53,4.5,4.11,4.5,1.41,0,2.82-.44,3.87-1.27l2.58,6.98Z"></path><path class="cls-2" d="m93.18,8.28c0-3.11,2.39-5.52,5.95-5.52s5.95,2.28,5.95,5.33c0,3.3-2.39,5.71-5.95,5.71s-5.95-2.41-5.95-5.52Zm1.17,10.28h9.57v34.13h-9.57V18.56Z"></path></g><g><path class="cls-3" d="m144.85,33.33v19.35h-5.89v-18.65c0-6.6-3.19-9.83-8.78-9.83-6.26,0-10.31,3.87-10.31,11.16v17.32h-5.89V19.06h5.65v5.07c2.39-3.43,6.57-5.39,11.72-5.39,7.92,0,13.5,4.69,13.5,14.59Z"></path><path class="cls-3" d="m185.23,37.9h-26.39c.74,5.9,5.34,9.83,11.78,9.83,3.8,0,7-1.33,9.39-4.06l3.25,3.93c-2.95,3.55-7.43,5.46-12.83,5.46-10.49,0-17.49-7.17-17.49-17.19s6.93-17.13,16.32-17.13,16.08,6.98,16.08,17.32c0,.51-.06,1.27-.12,1.84Zm-26.39-4.38h20.87c-.61-5.65-4.73-9.64-10.43-9.64s-9.82,3.93-10.43,9.64Z"></path><path class="cls-3" d="m190.51,35.87c0-10.02,7.18-17.13,16.94-17.13s16.88,7.1,16.88,17.13-7.12,17.19-16.88,17.19-16.94-7.17-16.94-17.19Zm27.86,0c0-7.17-4.66-11.8-10.92-11.8s-10.98,4.63-10.98,11.8,4.73,11.86,10.98,11.86,10.92-4.69,10.92-11.86Z"></path><path class="cls-3" d="m228.37,49.13l2.45-4.82c2.76,2.03,7.18,3.49,11.41,3.49,5.46,0,7.73-1.71,7.73-4.57,0-7.55-20.56-1.01-20.56-14.4,0-6.03,5.22-10.09,13.56-10.09,4.23,0,9.02,1.14,11.84,3.04l-2.52,4.82c-2.95-1.97-6.2-2.66-9.39-2.66-5.15,0-7.67,1.97-7.67,4.63,0,7.93,20.62,1.46,20.62,14.53,0,6.09-5.4,9.96-14.05,9.96-5.4,0-10.74-1.71-13.44-3.93Z"></path></g></svg> 