<svg
  width="24"
  height="24"
  viewBox="0 0 24 24"
  xmlns="http://www.w3.org/2000/svg"
>
  <path d="M8 24C10.208 24 12 22.208 12 20V16H8C5.79202 16 4 17.792 4 20C4 22.208 5.79202 24 8 24Z" fill="#0ACF83"/>
  <path d="M4 12C4 9.79204 5.79202 8 8 8H12V16H8C5.79202 16.0001 4 14.2081 4 12Z" fill="#A259FF"/>
  <path d="M4 4.00005C4 1.79204 5.79202 0 8 0H12V8H8C5.79202 8 4 6.20806 4 4.00005Z" fill="#F24E1E"/>
  <path d="M12 0H16C18.208 0 20 1.79204 20 4.00005C20 6.20806 18.208 8 16 8H12V0Z" fill="#FF7262"/>
  <path d="M20 12C20 14.208 18.208 16 16 16C13.792 16 12 14.208 12 12C12 9.79202 13.792 8 16 8C18.208 8 20 9.79202 20 12Z" fill="#1ABCFE"/>
</svg>
